# xmcd
# 
# Track frame offsets:
#     182
#     20257
#     44572
#     66315
#     87437
#     105832
#     125807
#     142302
#     162397
#     179130
#     201280
#     221035
#     237187
#     257357
#     277105
#     298782
#     316070
#     332635
# 
# Disc length: 4703
# 
# Revision: 8
# Processed by: cddbd v1.5.2PL0 Copyright (c) Steve Scherf et al.
# Submitted via: fre:ac v1.0.17
# 
DISCID=1f125d12
DTITLE=Various Artist - Black and Beautiful Vol 1 CD2
DYEAR=1996
DGENRE=Soul
TTITLE0=Backstreet Boys - I´ll Never Break Your Heart
TTITLE1=L.L. Cool J. - I Need Love
TTITLE2=R. Kelly - Down Low
TTITLE3=SWV - You´re The One
TTITLE4=Monifah - You
TTITLE5=MN8 - If You Only Let Me In
TTITLE6=Color Me Badd - The Earth, The Sun, The Rain
TTITLE7=Immature - Please Don´t Go
TTITLE8=Jodeci - Get On Up
TTITLE9=After 7 - Till You Do Me Right
TTITLE10=Shai - The Place Where You Belong
TTITLE11=Soul II Soul - I Care
TTITLE12=Chante Moore - Inside My Love
TTITLE13=Groove Theory - Ride
TTITLE14=Patra - Scent Of Attraction
TTITLE15=L.V. - Throw Your Hands Up
TTITLE16=Coolio - Too Hot
TTITLE17=Salt 'N Pepa - Ain´t Nuthin But A She Thing
EXTD=
EXTT0=
EXTT1=
EXTT2=
EXTT3=
EXTT4=
EXTT5=
EXTT6=
EXTT7=
EXTT8=
EXTT9=
EXTT10=
EXTT11=
EXTT12=
EXTT13=
EXTT14=
EXTT15=
EXTT16=
EXTT17=
PLAYORDER=
